<?xml version="1.0" encoding="utf-8" standalone="no"?>
<!DOCTYPE svg PUBLIC "-//W3C//DTD SVG 1.1//EN"
  "http://www.w3.org/Graphics/SVG/1.1/DTD/svg11.dtd">
<svg xmlns:xlink="http://www.w3.org/1999/xlink" width="360pt" height="360pt" viewBox="0 0 360 360" xmlns="http://www.w3.org/2000/svg" version="1.1">
 <metadata>
  <rdf:RDF xmlns:dc="http://purl.org/dc/elements/1.1/" xmlns:cc="http://creativecommons.org/ns#" xmlns:rdf="http://www.w3.org/1999/02/22-rdf-syntax-ns#">
   <cc:Work>
    <dc:type rdf:resource="http://purl.org/dc/dcmitype/StillImage"/>
    <dc:date>2023-10-05T09:32:41.664812</dc:date>
    <dc:format>image/svg+xml</dc:format>
    <dc:creator>
     <cc:Agent>
      <dc:title>Matplotlib v3.7.2, https://matplotlib.org/</dc:title>
     </cc:Agent>
    </dc:creator>
   </cc:Work>
  </rdf:RDF>
 </metadata>
 <defs>
  <style type="text/css">*{stroke-linejoin: round; stroke-linecap: butt}</style>
 </defs>
 <g id="figure_1">
  <g id="patch_1">
   <path d="M 0 360 
L 360 360 
L 360 0 
L 0 0 
z
" style="fill: #ffffff"/>
  </g>
  <g id="axes_1">
   <g id="patch_2">
    <path d="M 72.45 296.1 
L 340.56 296.1 
L 340.56 19.44 
L 72.45 19.44 
z
" style="fill: #ffffff"/>
   </g>
   <g id="matplotlib.axis_1">
    <g id="xtick_1">
     <g id="line2d_1">
      <path d="M 72.45 296.1 
L 72.45 19.44 
" clip-path="url(#pfe33cfc83b)" style="fill: none; stroke-dasharray: 3.7,1.6; stroke-dashoffset: 0; stroke: #cccccc"/>
     </g>
     <g id="text_1">
      <!-- 0.0 -->
      <g style="fill: #262626" transform="translate(60.9825 317.410391) scale(0.165 -0.165)">
       <defs>
        <path id="ArialMT-30" d="M 266 2259 
Q 266 3072 433 3567 
Q 600 4063 929 4331 
Q 1259 4600 1759 4600 
Q 2128 4600 2406 4451 
Q 2684 4303 2865 4023 
Q 3047 3744 3150 3342 
Q 3253 2941 3253 2259 
Q 3253 1453 3087 958 
Q 2922 463 2592 192 
Q 2263 -78 1759 -78 
Q 1097 -78 719 397 
Q 266 969 266 2259 
z
M 844 2259 
Q 844 1131 1108 757 
Q 1372 384 1759 384 
Q 2147 384 2411 759 
Q 2675 1134 2675 2259 
Q 2675 3391 2411 3762 
Q 2147 4134 1753 4134 
Q 1366 4134 1134 3806 
Q 844 3388 844 2259 
z
" transform="scale(0.015625)"/>
        <path id="ArialMT-2e" d="M 581 0 
L 581 641 
L 1222 641 
L 1222 0 
L 581 0 
z
" transform="scale(0.015625)"/>
       </defs>
       <use xlink:href="#ArialMT-30"/>
       <use xlink:href="#ArialMT-2e" x="55.615234"/>
       <use xlink:href="#ArialMT-30" x="83.398438"/>
      </g>
     </g>
    </g>
    <g id="xtick_2">
     <g id="line2d_2">
      <path d="M 133.384091 296.1 
L 133.384091 19.44 
" clip-path="url(#pfe33cfc83b)" style="fill: none; stroke-dasharray: 3.7,1.6; stroke-dashoffset: 0; stroke: #cccccc"/>
     </g>
     <g id="text_2">
      <!-- 2.5 -->
      <g style="fill: #262626" transform="translate(121.916591 317.410391) scale(0.165 -0.165)">
       <defs>
        <path id="ArialMT-32" d="M 3222 541 
L 3222 0 
L 194 0 
Q 188 203 259 391 
Q 375 700 629 1000 
Q 884 1300 1366 1694 
Q 2113 2306 2375 2664 
Q 2638 3022 2638 3341 
Q 2638 3675 2398 3904 
Q 2159 4134 1775 4134 
Q 1369 4134 1125 3890 
Q 881 3647 878 3216 
L 300 3275 
Q 359 3922 746 4261 
Q 1134 4600 1788 4600 
Q 2447 4600 2831 4234 
Q 3216 3869 3216 3328 
Q 3216 3053 3103 2787 
Q 2991 2522 2730 2228 
Q 2469 1934 1863 1422 
Q 1356 997 1212 845 
Q 1069 694 975 541 
L 3222 541 
z
" transform="scale(0.015625)"/>
        <path id="ArialMT-35" d="M 266 1200 
L 856 1250 
Q 922 819 1161 601 
Q 1400 384 1738 384 
Q 2144 384 2425 690 
Q 2706 997 2706 1503 
Q 2706 1984 2436 2262 
Q 2166 2541 1728 2541 
Q 1456 2541 1237 2417 
Q 1019 2294 894 2097 
L 366 2166 
L 809 4519 
L 3088 4519 
L 3088 3981 
L 1259 3981 
L 1013 2750 
Q 1425 3038 1878 3038 
Q 2478 3038 2890 2622 
Q 3303 2206 3303 1553 
Q 3303 931 2941 478 
Q 2500 -78 1738 -78 
Q 1113 -78 717 272 
Q 322 622 266 1200 
z
" transform="scale(0.015625)"/>
       </defs>
       <use xlink:href="#ArialMT-32"/>
       <use xlink:href="#ArialMT-2e" x="55.615234"/>
       <use xlink:href="#ArialMT-35" x="83.398438"/>
      </g>
     </g>
    </g>
    <g id="xtick_3">
     <g id="line2d_3">
      <path d="M 194.318182 296.1 
L 194.318182 19.44 
" clip-path="url(#pfe33cfc83b)" style="fill: none; stroke-dasharray: 3.7,1.6; stroke-dashoffset: 0; stroke: #cccccc"/>
     </g>
     <g id="text_3">
      <!-- 5.0 -->
      <g style="fill: #262626" transform="translate(182.850682 317.410391) scale(0.165 -0.165)">
       <use xlink:href="#ArialMT-35"/>
       <use xlink:href="#ArialMT-2e" x="55.615234"/>
       <use xlink:href="#ArialMT-30" x="83.398438"/>
      </g>
     </g>
    </g>
    <g id="xtick_4">
     <g id="line2d_4">
      <path d="M 255.252273 296.1 
L 255.252273 19.44 
" clip-path="url(#pfe33cfc83b)" style="fill: none; stroke-dasharray: 3.7,1.6; stroke-dashoffset: 0; stroke: #cccccc"/>
     </g>
     <g id="text_4">
      <!-- 7.5 -->
      <g style="fill: #262626" transform="translate(243.784773 317.410391) scale(0.165 -0.165)">
       <defs>
        <path id="ArialMT-37" d="M 303 3981 
L 303 4522 
L 3269 4522 
L 3269 4084 
Q 2831 3619 2401 2847 
Q 1972 2075 1738 1259 
Q 1569 684 1522 0 
L 944 0 
Q 953 541 1156 1306 
Q 1359 2072 1739 2783 
Q 2119 3494 2547 3981 
L 303 3981 
z
" transform="scale(0.015625)"/>
       </defs>
       <use xlink:href="#ArialMT-37"/>
       <use xlink:href="#ArialMT-2e" x="55.615234"/>
       <use xlink:href="#ArialMT-35" x="83.398438"/>
      </g>
     </g>
    </g>
    <g id="xtick_5">
     <g id="line2d_5">
      <path d="M 316.186364 296.1 
L 316.186364 19.44 
" clip-path="url(#pfe33cfc83b)" style="fill: none; stroke-dasharray: 3.7,1.6; stroke-dashoffset: 0; stroke: #cccccc"/>
     </g>
     <g id="text_5">
      <!-- 10.0 -->
      <g style="fill: #262626" transform="translate(300.13109 317.410391) scale(0.165 -0.165)">
       <defs>
        <path id="ArialMT-31" d="M 2384 0 
L 1822 0 
L 1822 3584 
Q 1619 3391 1289 3197 
Q 959 3003 697 2906 
L 697 3450 
Q 1169 3672 1522 3987 
Q 1875 4303 2022 4600 
L 2384 4600 
L 2384 0 
z
" transform="scale(0.015625)"/>
       </defs>
       <use xlink:href="#ArialMT-31"/>
       <use xlink:href="#ArialMT-30" x="55.615234"/>
       <use xlink:href="#ArialMT-2e" x="111.230469"/>
       <use xlink:href="#ArialMT-30" x="139.013672"/>
      </g>
     </g>
    </g>
    <g id="text_6">
     <!-- log1p(SARS-2 UMI counts) -->
     <g style="fill: #262626" transform="translate(97.969219 337.793203) scale(0.18 -0.18)">
      <defs>
       <path id="ArialMT-6c" d="M 409 0 
L 409 4581 
L 972 4581 
L 972 0 
L 409 0 
z
" transform="scale(0.015625)"/>
       <path id="ArialMT-6f" d="M 213 1659 
Q 213 2581 725 3025 
Q 1153 3394 1769 3394 
Q 2453 3394 2887 2945 
Q 3322 2497 3322 1706 
Q 3322 1066 3130 698 
Q 2938 331 2570 128 
Q 2203 -75 1769 -75 
Q 1072 -75 642 372 
Q 213 819 213 1659 
z
M 791 1659 
Q 791 1022 1069 705 
Q 1347 388 1769 388 
Q 2188 388 2466 706 
Q 2744 1025 2744 1678 
Q 2744 2294 2464 2611 
Q 2184 2928 1769 2928 
Q 1347 2928 1069 2612 
Q 791 2297 791 1659 
z
" transform="scale(0.015625)"/>
       <path id="ArialMT-67" d="M 319 -275 
L 866 -356 
Q 900 -609 1056 -725 
Q 1266 -881 1628 -881 
Q 2019 -881 2231 -725 
Q 2444 -569 2519 -288 
Q 2563 -116 2559 434 
Q 2191 0 1641 0 
Q 956 0 581 494 
Q 206 988 206 1678 
Q 206 2153 378 2554 
Q 550 2956 876 3175 
Q 1203 3394 1644 3394 
Q 2231 3394 2613 2919 
L 2613 3319 
L 3131 3319 
L 3131 450 
Q 3131 -325 2973 -648 
Q 2816 -972 2473 -1159 
Q 2131 -1347 1631 -1347 
Q 1038 -1347 672 -1080 
Q 306 -813 319 -275 
z
M 784 1719 
Q 784 1066 1043 766 
Q 1303 466 1694 466 
Q 2081 466 2343 764 
Q 2606 1063 2606 1700 
Q 2606 2309 2336 2618 
Q 2066 2928 1684 2928 
Q 1309 2928 1046 2623 
Q 784 2319 784 1719 
z
" transform="scale(0.015625)"/>
       <path id="ArialMT-70" d="M 422 -1272 
L 422 3319 
L 934 3319 
L 934 2888 
Q 1116 3141 1344 3267 
Q 1572 3394 1897 3394 
Q 2322 3394 2647 3175 
Q 2972 2956 3137 2557 
Q 3303 2159 3303 1684 
Q 3303 1175 3120 767 
Q 2938 359 2589 142 
Q 2241 -75 1856 -75 
Q 1575 -75 1351 44 
Q 1128 163 984 344 
L 984 -1272 
L 422 -1272 
z
M 931 1641 
Q 931 1000 1190 694 
Q 1450 388 1819 388 
Q 2194 388 2461 705 
Q 2728 1022 2728 1688 
Q 2728 2322 2467 2637 
Q 2206 2953 1844 2953 
Q 1484 2953 1207 2617 
Q 931 2281 931 1641 
z
" transform="scale(0.015625)"/>
       <path id="ArialMT-28" d="M 1497 -1347 
Q 1031 -759 709 28 
Q 388 816 388 1659 
Q 388 2403 628 3084 
Q 909 3875 1497 4659 
L 1900 4659 
Q 1522 4009 1400 3731 
Q 1209 3300 1100 2831 
Q 966 2247 966 1656 
Q 966 153 1900 -1347 
L 1497 -1347 
z
" transform="scale(0.015625)"/>
       <path id="ArialMT-53" d="M 288 1472 
L 859 1522 
Q 900 1178 1048 958 
Q 1197 738 1509 602 
Q 1822 466 2213 466 
Q 2559 466 2825 569 
Q 3091 672 3220 851 
Q 3350 1031 3350 1244 
Q 3350 1459 3225 1620 
Q 3100 1781 2813 1891 
Q 2628 1963 1997 2114 
Q 1366 2266 1113 2400 
Q 784 2572 623 2826 
Q 463 3081 463 3397 
Q 463 3744 659 4045 
Q 856 4347 1234 4503 
Q 1613 4659 2075 4659 
Q 2584 4659 2973 4495 
Q 3363 4331 3572 4012 
Q 3781 3694 3797 3291 
L 3216 3247 
Q 3169 3681 2898 3903 
Q 2628 4125 2100 4125 
Q 1550 4125 1298 3923 
Q 1047 3722 1047 3438 
Q 1047 3191 1225 3031 
Q 1400 2872 2139 2705 
Q 2878 2538 3153 2413 
Q 3553 2228 3743 1945 
Q 3934 1663 3934 1294 
Q 3934 928 3725 604 
Q 3516 281 3123 101 
Q 2731 -78 2241 -78 
Q 1619 -78 1198 103 
Q 778 284 539 648 
Q 300 1013 288 1472 
z
" transform="scale(0.015625)"/>
       <path id="ArialMT-41" d="M -9 0 
L 1750 4581 
L 2403 4581 
L 4278 0 
L 3588 0 
L 3053 1388 
L 1138 1388 
L 634 0 
L -9 0 
z
M 1313 1881 
L 2866 1881 
L 2388 3150 
Q 2169 3728 2063 4100 
Q 1975 3659 1816 3225 
L 1313 1881 
z
" transform="scale(0.015625)"/>
       <path id="ArialMT-52" d="M 503 0 
L 503 4581 
L 2534 4581 
Q 3147 4581 3465 4457 
Q 3784 4334 3975 4021 
Q 4166 3709 4166 3331 
Q 4166 2844 3850 2509 
Q 3534 2175 2875 2084 
Q 3116 1969 3241 1856 
Q 3506 1613 3744 1247 
L 4541 0 
L 3778 0 
L 3172 953 
Q 2906 1366 2734 1584 
Q 2563 1803 2427 1890 
Q 2291 1978 2150 2013 
Q 2047 2034 1813 2034 
L 1109 2034 
L 1109 0 
L 503 0 
z
M 1109 2559 
L 2413 2559 
Q 2828 2559 3062 2645 
Q 3297 2731 3419 2920 
Q 3541 3109 3541 3331 
Q 3541 3656 3305 3865 
Q 3069 4075 2559 4075 
L 1109 4075 
L 1109 2559 
z
" transform="scale(0.015625)"/>
       <path id="ArialMT-2d" d="M 203 1375 
L 203 1941 
L 1931 1941 
L 1931 1375 
L 203 1375 
z
" transform="scale(0.015625)"/>
       <path id="ArialMT-20" transform="scale(0.015625)"/>
       <path id="ArialMT-55" d="M 3500 4581 
L 4106 4581 
L 4106 1934 
Q 4106 1244 3950 837 
Q 3794 431 3386 176 
Q 2978 -78 2316 -78 
Q 1672 -78 1262 144 
Q 853 366 678 786 
Q 503 1206 503 1934 
L 503 4581 
L 1109 4581 
L 1109 1938 
Q 1109 1341 1220 1058 
Q 1331 775 1601 622 
Q 1872 469 2263 469 
Q 2931 469 3215 772 
Q 3500 1075 3500 1938 
L 3500 4581 
z
" transform="scale(0.015625)"/>
       <path id="ArialMT-4d" d="M 475 0 
L 475 4581 
L 1388 4581 
L 2472 1338 
Q 2622 884 2691 659 
Q 2769 909 2934 1394 
L 4031 4581 
L 4847 4581 
L 4847 0 
L 4263 0 
L 4263 3834 
L 2931 0 
L 2384 0 
L 1059 3900 
L 1059 0 
L 475 0 
z
" transform="scale(0.015625)"/>
       <path id="ArialMT-49" d="M 597 0 
L 597 4581 
L 1203 4581 
L 1203 0 
L 597 0 
z
" transform="scale(0.015625)"/>
       <path id="ArialMT-63" d="M 2588 1216 
L 3141 1144 
Q 3050 572 2676 248 
Q 2303 -75 1759 -75 
Q 1078 -75 664 370 
Q 250 816 250 1647 
Q 250 2184 428 2587 
Q 606 2991 970 3192 
Q 1334 3394 1763 3394 
Q 2303 3394 2647 3120 
Q 2991 2847 3088 2344 
L 2541 2259 
Q 2463 2594 2264 2762 
Q 2066 2931 1784 2931 
Q 1359 2931 1093 2626 
Q 828 2322 828 1663 
Q 828 994 1084 691 
Q 1341 388 1753 388 
Q 2084 388 2306 591 
Q 2528 794 2588 1216 
z
" transform="scale(0.015625)"/>
       <path id="ArialMT-75" d="M 2597 0 
L 2597 488 
Q 2209 -75 1544 -75 
Q 1250 -75 995 37 
Q 741 150 617 320 
Q 494 491 444 738 
Q 409 903 409 1263 
L 409 3319 
L 972 3319 
L 972 1478 
Q 972 1038 1006 884 
Q 1059 663 1231 536 
Q 1403 409 1656 409 
Q 1909 409 2131 539 
Q 2353 669 2445 892 
Q 2538 1116 2538 1541 
L 2538 3319 
L 3100 3319 
L 3100 0 
L 2597 0 
z
" transform="scale(0.015625)"/>
       <path id="ArialMT-6e" d="M 422 0 
L 422 3319 
L 928 3319 
L 928 2847 
Q 1294 3394 1984 3394 
Q 2284 3394 2536 3286 
Q 2788 3178 2913 3003 
Q 3038 2828 3088 2588 
Q 3119 2431 3119 2041 
L 3119 0 
L 2556 0 
L 2556 2019 
Q 2556 2363 2490 2533 
Q 2425 2703 2258 2804 
Q 2091 2906 1866 2906 
Q 1506 2906 1245 2678 
Q 984 2450 984 1813 
L 984 0 
L 422 0 
z
" transform="scale(0.015625)"/>
       <path id="ArialMT-74" d="M 1650 503 
L 1731 6 
Q 1494 -44 1306 -44 
Q 1000 -44 831 53 
Q 663 150 594 308 
Q 525 466 525 972 
L 525 2881 
L 113 2881 
L 113 3319 
L 525 3319 
L 525 4141 
L 1084 4478 
L 1084 3319 
L 1650 3319 
L 1650 2881 
L 1084 2881 
L 1084 941 
Q 1084 700 1114 631 
Q 1144 563 1211 522 
Q 1278 481 1403 481 
Q 1497 481 1650 503 
z
" transform="scale(0.015625)"/>
       <path id="ArialMT-73" d="M 197 991 
L 753 1078 
Q 800 744 1014 566 
Q 1228 388 1613 388 
Q 2000 388 2187 545 
Q 2375 703 2375 916 
Q 2375 1106 2209 1216 
Q 2094 1291 1634 1406 
Q 1016 1563 777 1677 
Q 538 1791 414 1992 
Q 291 2194 291 2438 
Q 291 2659 392 2848 
Q 494 3038 669 3163 
Q 800 3259 1026 3326 
Q 1253 3394 1513 3394 
Q 1903 3394 2198 3281 
Q 2494 3169 2634 2976 
Q 2775 2784 2828 2463 
L 2278 2388 
Q 2241 2644 2061 2787 
Q 1881 2931 1553 2931 
Q 1166 2931 1000 2803 
Q 834 2675 834 2503 
Q 834 2394 903 2306 
Q 972 2216 1119 2156 
Q 1203 2125 1616 2013 
Q 2213 1853 2448 1751 
Q 2684 1650 2818 1456 
Q 2953 1263 2953 975 
Q 2953 694 2789 445 
Q 2625 197 2315 61 
Q 2006 -75 1616 -75 
Q 969 -75 630 194 
Q 291 463 197 991 
z
" transform="scale(0.015625)"/>
       <path id="ArialMT-29" d="M 791 -1347 
L 388 -1347 
Q 1322 153 1322 1656 
Q 1322 2244 1188 2822 
Q 1081 3291 891 3722 
Q 769 4003 388 4659 
L 791 4659 
Q 1378 3875 1659 3084 
Q 1900 2403 1900 1659 
Q 1900 816 1576 28 
Q 1253 -759 791 -1347 
z
" transform="scale(0.015625)"/>
      </defs>
      <use xlink:href="#ArialMT-6c"/>
      <use xlink:href="#ArialMT-6f" x="22.216797"/>
      <use xlink:href="#ArialMT-67" x="77.832031"/>
      <use xlink:href="#ArialMT-31" x="133.447266"/>
      <use xlink:href="#ArialMT-70" x="189.0625"/>
      <use xlink:href="#ArialMT-28" x="244.677734"/>
      <use xlink:href="#ArialMT-53" x="277.978516"/>
      <use xlink:href="#ArialMT-41" x="344.677734"/>
      <use xlink:href="#ArialMT-52" x="411.376953"/>
      <use xlink:href="#ArialMT-53" x="483.59375"/>
      <use xlink:href="#ArialMT-2d" x="550.292969"/>
      <use xlink:href="#ArialMT-32" x="583.59375"/>
      <use xlink:href="#ArialMT-20" x="639.208984"/>
      <use xlink:href="#ArialMT-55" x="666.992188"/>
      <use xlink:href="#ArialMT-4d" x="739.208984"/>
      <use xlink:href="#ArialMT-49" x="822.509766"/>
      <use xlink:href="#ArialMT-20" x="850.292969"/>
      <use xlink:href="#ArialMT-63" x="878.076172"/>
      <use xlink:href="#ArialMT-6f" x="928.076172"/>
      <use xlink:href="#ArialMT-75" x="983.691406"/>
      <use xlink:href="#ArialMT-6e" x="1039.306641"/>
      <use xlink:href="#ArialMT-74" x="1094.921875"/>
      <use xlink:href="#ArialMT-73" x="1122.705078"/>
      <use xlink:href="#ArialMT-29" x="1172.705078"/>
     </g>
    </g>
   </g>
   <g id="matplotlib.axis_2">
    <g id="ytick_1">
     <g id="line2d_6">
      <path d="M 72.45 296.1 
L 340.56 296.1 
" clip-path="url(#pfe33cfc83b)" style="fill: none; stroke-dasharray: 3.7,1.6; stroke-dashoffset: 0; stroke: #cccccc"/>
     </g>
     <g id="text_7">
      <!-- 0.0 -->
      <g style="fill: #262626" transform="translate(40.015 302.005195) scale(0.165 -0.165)">
       <use xlink:href="#ArialMT-30"/>
       <use xlink:href="#ArialMT-2e" x="55.615234"/>
       <use xlink:href="#ArialMT-30" x="83.398438"/>
      </g>
     </g>
    </g>
    <g id="ytick_2">
     <g id="line2d_7">
      <path d="M 72.45 239.513995 
L 340.56 239.513995 
" clip-path="url(#pfe33cfc83b)" style="fill: none; stroke-dasharray: 3.7,1.6; stroke-dashoffset: 0; stroke: #cccccc"/>
     </g>
     <g id="text_8">
      <!-- 0.2 -->
      <g style="fill: #262626" transform="translate(40.015 245.41919) scale(0.165 -0.165)">
       <use xlink:href="#ArialMT-30"/>
       <use xlink:href="#ArialMT-2e" x="55.615234"/>
       <use xlink:href="#ArialMT-32" x="83.398438"/>
      </g>
     </g>
    </g>
    <g id="ytick_3">
     <g id="line2d_8">
      <path d="M 72.45 182.927989 
L 340.56 182.927989 
" clip-path="url(#pfe33cfc83b)" style="fill: none; stroke-dasharray: 3.7,1.6; stroke-dashoffset: 0; stroke: #cccccc"/>
     </g>
     <g id="text_9">
      <!-- 0.4 -->
      <g style="fill: #262626" transform="translate(40.015 188.833185) scale(0.165 -0.165)">
       <defs>
        <path id="ArialMT-34" d="M 2069 0 
L 2069 1097 
L 81 1097 
L 81 1613 
L 2172 4581 
L 2631 4581 
L 2631 1613 
L 3250 1613 
L 3250 1097 
L 2631 1097 
L 2631 0 
L 2069 0 
z
M 2069 1613 
L 2069 3678 
L 634 1613 
L 2069 1613 
z
" transform="scale(0.015625)"/>
       </defs>
       <use xlink:href="#ArialMT-30"/>
       <use xlink:href="#ArialMT-2e" x="55.615234"/>
       <use xlink:href="#ArialMT-34" x="83.398438"/>
      </g>
     </g>
    </g>
    <g id="ytick_4">
     <g id="line2d_9">
      <path d="M 72.45 126.341984 
L 340.56 126.341984 
" clip-path="url(#pfe33cfc83b)" style="fill: none; stroke-dasharray: 3.7,1.6; stroke-dashoffset: 0; stroke: #cccccc"/>
     </g>
     <g id="text_10">
      <!-- 0.6 -->
      <g style="fill: #262626" transform="translate(40.015 132.247179) scale(0.165 -0.165)">
       <defs>
        <path id="ArialMT-36" d="M 3184 3459 
L 2625 3416 
Q 2550 3747 2413 3897 
Q 2184 4138 1850 4138 
Q 1581 4138 1378 3988 
Q 1113 3794 959 3422 
Q 806 3050 800 2363 
Q 1003 2672 1297 2822 
Q 1591 2972 1913 2972 
Q 2475 2972 2870 2558 
Q 3266 2144 3266 1488 
Q 3266 1056 3080 686 
Q 2894 316 2569 119 
Q 2244 -78 1831 -78 
Q 1128 -78 684 439 
Q 241 956 241 2144 
Q 241 3472 731 4075 
Q 1159 4600 1884 4600 
Q 2425 4600 2770 4297 
Q 3116 3994 3184 3459 
z
M 888 1484 
Q 888 1194 1011 928 
Q 1134 663 1356 523 
Q 1578 384 1822 384 
Q 2178 384 2434 671 
Q 2691 959 2691 1453 
Q 2691 1928 2437 2201 
Q 2184 2475 1800 2475 
Q 1419 2475 1153 2201 
Q 888 1928 888 1484 
z
" transform="scale(0.015625)"/>
       </defs>
       <use xlink:href="#ArialMT-30"/>
       <use xlink:href="#ArialMT-2e" x="55.615234"/>
       <use xlink:href="#ArialMT-36" x="83.398438"/>
      </g>
     </g>
    </g>
    <g id="ytick_5">
     <g id="line2d_10">
      <path d="M 72.45 69.755979 
L 340.56 69.755979 
" clip-path="url(#pfe33cfc83b)" style="fill: none; stroke-dasharray: 3.7,1.6; stroke-dashoffset: 0; stroke: #cccccc"/>
     </g>
     <g id="text_11">
      <!-- 0.8 -->
      <g style="fill: #262626" transform="translate(40.015 75.661174) scale(0.165 -0.165)">
       <defs>
        <path id="ArialMT-38" d="M 1131 2484 
Q 781 2613 612 2850 
Q 444 3088 444 3419 
Q 444 3919 803 4259 
Q 1163 4600 1759 4600 
Q 2359 4600 2725 4251 
Q 3091 3903 3091 3403 
Q 3091 3084 2923 2848 
Q 2756 2613 2416 2484 
Q 2838 2347 3058 2040 
Q 3278 1734 3278 1309 
Q 3278 722 2862 322 
Q 2447 -78 1769 -78 
Q 1091 -78 675 323 
Q 259 725 259 1325 
Q 259 1772 486 2073 
Q 713 2375 1131 2484 
z
M 1019 3438 
Q 1019 3113 1228 2906 
Q 1438 2700 1772 2700 
Q 2097 2700 2305 2904 
Q 2513 3109 2513 3406 
Q 2513 3716 2298 3927 
Q 2084 4138 1766 4138 
Q 1444 4138 1231 3931 
Q 1019 3725 1019 3438 
z
M 838 1322 
Q 838 1081 952 856 
Q 1066 631 1291 507 
Q 1516 384 1775 384 
Q 2178 384 2440 643 
Q 2703 903 2703 1303 
Q 2703 1709 2433 1975 
Q 2163 2241 1756 2241 
Q 1359 2241 1098 1978 
Q 838 1716 838 1322 
z
" transform="scale(0.015625)"/>
       </defs>
       <use xlink:href="#ArialMT-30"/>
       <use xlink:href="#ArialMT-2e" x="55.615234"/>
       <use xlink:href="#ArialMT-38" x="83.398438"/>
      </g>
     </g>
    </g>
    <g id="text_12">
     <!-- Density -->
     <g style="fill: #262626" transform="translate(32.226562 187.779375) rotate(-90) scale(0.18 -0.18)">
      <defs>
       <path id="ArialMT-44" d="M 494 0 
L 494 4581 
L 2072 4581 
Q 2606 4581 2888 4516 
Q 3281 4425 3559 4188 
Q 3922 3881 4101 3404 
Q 4281 2928 4281 2316 
Q 4281 1794 4159 1391 
Q 4038 988 3847 723 
Q 3656 459 3429 307 
Q 3203 156 2883 78 
Q 2563 0 2147 0 
L 494 0 
z
M 1100 541 
L 2078 541 
Q 2531 541 2789 625 
Q 3047 709 3200 863 
Q 3416 1078 3536 1442 
Q 3656 1806 3656 2325 
Q 3656 3044 3420 3430 
Q 3184 3816 2847 3947 
Q 2603 4041 2063 4041 
L 1100 4041 
L 1100 541 
z
" transform="scale(0.015625)"/>
       <path id="ArialMT-65" d="M 2694 1069 
L 3275 997 
Q 3138 488 2766 206 
Q 2394 -75 1816 -75 
Q 1088 -75 661 373 
Q 234 822 234 1631 
Q 234 2469 665 2931 
Q 1097 3394 1784 3394 
Q 2450 3394 2872 2941 
Q 3294 2488 3294 1666 
Q 3294 1616 3291 1516 
L 816 1516 
Q 847 969 1125 678 
Q 1403 388 1819 388 
Q 2128 388 2347 550 
Q 2566 713 2694 1069 
z
M 847 1978 
L 2700 1978 
Q 2663 2397 2488 2606 
Q 2219 2931 1791 2931 
Q 1403 2931 1139 2672 
Q 875 2413 847 1978 
z
" transform="scale(0.015625)"/>
       <path id="ArialMT-69" d="M 425 3934 
L 425 4581 
L 988 4581 
L 988 3934 
L 425 3934 
z
M 425 0 
L 425 3319 
L 988 3319 
L 988 0 
L 425 0 
z
" transform="scale(0.015625)"/>
       <path id="ArialMT-79" d="M 397 -1278 
L 334 -750 
Q 519 -800 656 -800 
Q 844 -800 956 -737 
Q 1069 -675 1141 -563 
Q 1194 -478 1313 -144 
Q 1328 -97 1363 -6 
L 103 3319 
L 709 3319 
L 1400 1397 
Q 1534 1031 1641 628 
Q 1738 1016 1872 1384 
L 2581 3319 
L 3144 3319 
L 1881 -56 
Q 1678 -603 1566 -809 
Q 1416 -1088 1222 -1217 
Q 1028 -1347 759 -1347 
Q 597 -1347 397 -1278 
z
" transform="scale(0.015625)"/>
      </defs>
      <use xlink:href="#ArialMT-44"/>
      <use xlink:href="#ArialMT-65" x="72.216797"/>
      <use xlink:href="#ArialMT-6e" x="127.832031"/>
      <use xlink:href="#ArialMT-73" x="183.447266"/>
      <use xlink:href="#ArialMT-69" x="233.447266"/>
      <use xlink:href="#ArialMT-74" x="255.664062"/>
      <use xlink:href="#ArialMT-79" x="283.447266"/>
     </g>
    </g>
   </g>
   <g id="patch_3">
    <path d="M 99.227176 296.1 
L 101.135738 296.1 
L 101.135738 276.662529 
L 99.227176 276.662529 
z
" clip-path="url(#pfe33cfc83b)" style="fill: #808080; fill-opacity: 0.75; stroke: #ffffff; stroke-width: 0.298396; stroke-linejoin: miter"/>
   </g>
   <g id="patch_4">
    <path d="M 101.135738 296.1 
L 103.0443 296.1 
L 103.0443 296.1 
L 101.135738 296.1 
z
" clip-path="url(#pfe33cfc83b)" style="fill: #808080; fill-opacity: 0.75; stroke: #ffffff; stroke-width: 0.298396; stroke-linejoin: miter"/>
   </g>
   <g id="patch_5">
    <path d="M 103.0443 296.1 
L 104.952861 296.1 
L 104.952861 296.1 
L 103.0443 296.1 
z
" clip-path="url(#pfe33cfc83b)" style="fill: #808080; fill-opacity: 0.75; stroke: #ffffff; stroke-width: 0.298396; stroke-linejoin: miter"/>
   </g>
   <g id="patch_6">
    <path d="M 104.952861 296.1 
L 106.861423 296.1 
L 106.861423 265.863934 
L 104.952861 265.863934 
z
" clip-path="url(#pfe33cfc83b)" style="fill: #808080; fill-opacity: 0.75; stroke: #ffffff; stroke-width: 0.298396; stroke-linejoin: miter"/>
   </g>
   <g id="patch_7">
    <path d="M 106.861423 296.1 
L 108.769984 296.1 
L 108.769984 296.1 
L 106.861423 296.1 
z
" clip-path="url(#pfe33cfc83b)" style="fill: #808080; fill-opacity: 0.75; stroke: #ffffff; stroke-width: 0.298396; stroke-linejoin: miter"/>
   </g>
   <g id="patch_8">
    <path d="M 108.769984 296.1 
L 110.678546 296.1 
L 110.678546 296.1 
L 108.769984 296.1 
z
" clip-path="url(#pfe33cfc83b)" style="fill: #808080; fill-opacity: 0.75; stroke: #ffffff; stroke-width: 0.298396; stroke-linejoin: miter"/>
   </g>
   <g id="patch_9">
    <path d="M 110.678546 296.1 
L 112.587108 296.1 
L 112.587108 198.912646 
L 110.678546 198.912646 
z
" clip-path="url(#pfe33cfc83b)" style="fill: #808080; fill-opacity: 0.75; stroke: #ffffff; stroke-width: 0.298396; stroke-linejoin: miter"/>
   </g>
   <g id="patch_10">
    <path d="M 112.587108 296.1 
L 114.495669 296.1 
L 114.495669 296.1 
L 112.587108 296.1 
z
" clip-path="url(#pfe33cfc83b)" style="fill: #808080; fill-opacity: 0.75; stroke: #ffffff; stroke-width: 0.298396; stroke-linejoin: miter"/>
   </g>
   <g id="patch_11">
    <path d="M 114.495669 296.1 
L 116.404231 296.1 
L 116.404231 188.114052 
L 114.495669 188.114052 
z
" clip-path="url(#pfe33cfc83b)" style="fill: #808080; fill-opacity: 0.75; stroke: #ffffff; stroke-width: 0.298396; stroke-linejoin: miter"/>
   </g>
   <g id="patch_12">
    <path d="M 116.404231 296.1 
L 118.312793 296.1 
L 118.312793 296.1 
L 116.404231 296.1 
z
" clip-path="url(#pfe33cfc83b)" style="fill: #808080; fill-opacity: 0.75; stroke: #ffffff; stroke-width: 0.298396; stroke-linejoin: miter"/>
   </g>
   <g id="patch_13">
    <path d="M 118.312793 296.1 
L 120.221354 296.1 
L 120.221354 114.683607 
L 118.312793 114.683607 
z
" clip-path="url(#pfe33cfc83b)" style="fill: #808080; fill-opacity: 0.75; stroke: #ffffff; stroke-width: 0.298396; stroke-linejoin: miter"/>
   </g>
   <g id="patch_14">
    <path d="M 120.221354 296.1 
L 122.129916 296.1 
L 122.129916 296.1 
L 120.221354 296.1 
z
" clip-path="url(#pfe33cfc83b)" style="fill: #808080; fill-opacity: 0.75; stroke: #ffffff; stroke-width: 0.298396; stroke-linejoin: miter"/>
   </g>
   <g id="patch_15">
    <path d="M 122.129916 296.1 
L 124.038477 296.1 
L 124.038477 127.64192 
L 122.129916 127.64192 
z
" clip-path="url(#pfe33cfc83b)" style="fill: #808080; fill-opacity: 0.75; stroke: #ffffff; stroke-width: 0.298396; stroke-linejoin: miter"/>
   </g>
   <g id="patch_16">
    <path d="M 124.038477 296.1 
L 125.947039 296.1 
L 125.947039 296.1 
L 124.038477 296.1 
z
" clip-path="url(#pfe33cfc83b)" style="fill: #808080; fill-opacity: 0.75; stroke: #ffffff; stroke-width: 0.298396; stroke-linejoin: miter"/>
   </g>
   <g id="patch_17">
    <path d="M 125.947039 296.1 
L 127.855601 296.1 
L 127.855601 32.614286 
L 125.947039 32.614286 
z
" clip-path="url(#pfe33cfc83b)" style="fill: #808080; fill-opacity: 0.75; stroke: #ffffff; stroke-width: 0.298396; stroke-linejoin: miter"/>
   </g>
   <g id="patch_18">
    <path d="M 127.855601 296.1 
L 129.764162 296.1 
L 129.764162 67.169789 
L 127.855601 67.169789 
z
" clip-path="url(#pfe33cfc83b)" style="fill: #808080; fill-opacity: 0.75; stroke: #ffffff; stroke-width: 0.298396; stroke-linejoin: miter"/>
   </g>
   <g id="patch_19">
    <path d="M 129.764162 296.1 
L 131.672724 296.1 
L 131.672724 32.614286 
L 129.764162 32.614286 
z
" clip-path="url(#pfe33cfc83b)" style="fill: #808080; fill-opacity: 0.75; stroke: #ffffff; stroke-width: 0.298396; stroke-linejoin: miter"/>
   </g>
   <g id="patch_20">
    <path d="M 131.672724 296.1 
L 133.581285 296.1 
L 133.581285 75.808665 
L 131.672724 75.808665 
z
" clip-path="url(#pfe33cfc83b)" style="fill: #808080; fill-opacity: 0.75; stroke: #ffffff; stroke-width: 0.298396; stroke-linejoin: miter"/>
   </g>
   <g id="patch_21">
    <path d="M 133.581285 296.1 
L 135.489847 296.1 
L 135.489847 103.885012 
L 133.581285 103.885012 
z
" clip-path="url(#pfe33cfc83b)" style="fill: #808080; fill-opacity: 0.75; stroke: #ffffff; stroke-width: 0.298396; stroke-linejoin: miter"/>
   </g>
   <g id="patch_22">
    <path d="M 135.489847 296.1 
L 137.398409 296.1 
L 137.398409 69.329508 
L 135.489847 69.329508 
z
" clip-path="url(#pfe33cfc83b)" style="fill: #808080; fill-opacity: 0.75; stroke: #ffffff; stroke-width: 0.298396; stroke-linejoin: miter"/>
   </g>
   <g id="patch_23">
    <path d="M 137.398409 296.1 
L 139.30697 296.1 
L 139.30697 142.759953 
L 137.398409 142.759953 
z
" clip-path="url(#pfe33cfc83b)" style="fill: #808080; fill-opacity: 0.75; stroke: #ffffff; stroke-width: 0.298396; stroke-linejoin: miter"/>
   </g>
   <g id="patch_24">
    <path d="M 139.30697 296.1 
L 141.215532 296.1 
L 141.215532 123.322482 
L 139.30697 123.322482 
z
" clip-path="url(#pfe33cfc83b)" style="fill: #808080; fill-opacity: 0.75; stroke: #ffffff; stroke-width: 0.298396; stroke-linejoin: miter"/>
   </g>
   <g id="patch_25">
    <path d="M 141.215532 296.1 
L 143.124093 296.1 
L 143.124093 73.648946 
L 141.215532 73.648946 
z
" clip-path="url(#pfe33cfc83b)" style="fill: #808080; fill-opacity: 0.75; stroke: #ffffff; stroke-width: 0.298396; stroke-linejoin: miter"/>
   </g>
   <g id="patch_26">
    <path d="M 143.124093 296.1 
L 145.032655 296.1 
L 145.032655 214.030679 
L 143.124093 214.030679 
z
" clip-path="url(#pfe33cfc83b)" style="fill: #808080; fill-opacity: 0.75; stroke: #ffffff; stroke-width: 0.298396; stroke-linejoin: miter"/>
   </g>
   <g id="patch_27">
    <path d="M 145.032655 296.1 
L 146.941217 296.1 
L 146.941217 162.197424 
L 145.032655 162.197424 
z
" clip-path="url(#pfe33cfc83b)" style="fill: #808080; fill-opacity: 0.75; stroke: #ffffff; stroke-width: 0.298396; stroke-linejoin: miter"/>
   </g>
   <g id="patch_28">
    <path d="M 146.941217 296.1 
L 148.849778 296.1 
L 148.849778 229.148712 
L 146.941217 229.148712 
z
" clip-path="url(#pfe33cfc83b)" style="fill: #808080; fill-opacity: 0.75; stroke: #ffffff; stroke-width: 0.298396; stroke-linejoin: miter"/>
   </g>
   <g id="patch_29">
    <path d="M 148.849778 296.1 
L 150.75834 296.1 
L 150.75834 194.593208 
L 148.849778 194.593208 
z
" clip-path="url(#pfe33cfc83b)" style="fill: #808080; fill-opacity: 0.75; stroke: #ffffff; stroke-width: 0.298396; stroke-linejoin: miter"/>
   </g>
   <g id="patch_30">
    <path d="M 150.75834 296.1 
L 152.666902 296.1 
L 152.666902 233.46815 
L 150.75834 233.46815 
z
" clip-path="url(#pfe33cfc83b)" style="fill: #808080; fill-opacity: 0.75; stroke: #ffffff; stroke-width: 0.298396; stroke-linejoin: miter"/>
   </g>
   <g id="patch_31">
    <path d="M 152.666902 296.1 
L 154.575463 296.1 
L 154.575463 224.829274 
L 152.666902 224.829274 
z
" clip-path="url(#pfe33cfc83b)" style="fill: #808080; fill-opacity: 0.75; stroke: #ffffff; stroke-width: 0.298396; stroke-linejoin: miter"/>
   </g>
   <g id="patch_32">
    <path d="M 154.575463 296.1 
L 156.484025 296.1 
L 156.484025 261.544496 
L 154.575463 261.544496 
z
" clip-path="url(#pfe33cfc83b)" style="fill: #808080; fill-opacity: 0.75; stroke: #ffffff; stroke-width: 0.298396; stroke-linejoin: miter"/>
   </g>
   <g id="patch_33">
    <path d="M 156.484025 296.1 
L 158.392586 296.1 
L 158.392586 268.023653 
L 156.484025 268.023653 
z
" clip-path="url(#pfe33cfc83b)" style="fill: #808080; fill-opacity: 0.75; stroke: #ffffff; stroke-width: 0.298396; stroke-linejoin: miter"/>
   </g>
   <g id="patch_34">
    <path d="M 158.392586 296.1 
L 160.301148 296.1 
L 160.301148 278.822248 
L 158.392586 278.822248 
z
" clip-path="url(#pfe33cfc83b)" style="fill: #808080; fill-opacity: 0.75; stroke: #ffffff; stroke-width: 0.298396; stroke-linejoin: miter"/>
   </g>
   <g id="patch_35">
    <path d="M 160.301148 296.1 
L 162.20971 296.1 
L 162.20971 278.822248 
L 160.301148 278.822248 
z
" clip-path="url(#pfe33cfc83b)" style="fill: #808080; fill-opacity: 0.75; stroke: #ffffff; stroke-width: 0.298396; stroke-linejoin: miter"/>
   </g>
   <g id="patch_36">
    <path d="M 162.20971 296.1 
L 164.118271 296.1 
L 164.118271 285.301405 
L 162.20971 285.301405 
z
" clip-path="url(#pfe33cfc83b)" style="fill: #808080; fill-opacity: 0.75; stroke: #ffffff; stroke-width: 0.298396; stroke-linejoin: miter"/>
   </g>
   <g id="patch_37">
    <path d="M 164.118271 296.1 
L 166.026833 296.1 
L 166.026833 285.301405 
L 164.118271 285.301405 
z
" clip-path="url(#pfe33cfc83b)" style="fill: #808080; fill-opacity: 0.75; stroke: #ffffff; stroke-width: 0.298396; stroke-linejoin: miter"/>
   </g>
   <g id="patch_38">
    <path d="M 166.026833 296.1 
L 167.935394 296.1 
L 167.935394 291.780562 
L 166.026833 291.780562 
z
" clip-path="url(#pfe33cfc83b)" style="fill: #808080; fill-opacity: 0.75; stroke: #ffffff; stroke-width: 0.298396; stroke-linejoin: miter"/>
   </g>
   <g id="patch_39">
    <path d="M 167.935394 296.1 
L 169.843956 296.1 
L 169.843956 289.620843 
L 167.935394 289.620843 
z
" clip-path="url(#pfe33cfc83b)" style="fill: #808080; fill-opacity: 0.75; stroke: #ffffff; stroke-width: 0.298396; stroke-linejoin: miter"/>
   </g>
   <g id="patch_40">
    <path d="M 169.843956 296.1 
L 171.752518 296.1 
L 171.752518 287.461124 
L 169.843956 287.461124 
z
" clip-path="url(#pfe33cfc83b)" style="fill: #808080; fill-opacity: 0.75; stroke: #ffffff; stroke-width: 0.298396; stroke-linejoin: miter"/>
   </g>
   <g id="patch_41">
    <path d="M 171.752518 296.1 
L 173.661079 296.1 
L 173.661079 280.981967 
L 171.752518 280.981967 
z
" clip-path="url(#pfe33cfc83b)" style="fill: #808080; fill-opacity: 0.75; stroke: #ffffff; stroke-width: 0.298396; stroke-linejoin: miter"/>
   </g>
   <g id="patch_42">
    <path d="M 173.661079 296.1 
L 175.569641 296.1 
L 175.569641 285.301405 
L 173.661079 285.301405 
z
" clip-path="url(#pfe33cfc83b)" style="fill: #808080; fill-opacity: 0.75; stroke: #ffffff; stroke-width: 0.298396; stroke-linejoin: miter"/>
   </g>
   <g id="patch_43">
    <path d="M 175.569641 296.1 
L 177.478203 296.1 
L 177.478203 291.780562 
L 175.569641 291.780562 
z
" clip-path="url(#pfe33cfc83b)" style="fill: #808080; fill-opacity: 0.75; stroke: #ffffff; stroke-width: 0.298396; stroke-linejoin: miter"/>
   </g>
   <g id="patch_44">
    <path d="M 177.478203 296.1 
L 179.386764 296.1 
L 179.386764 296.1 
L 177.478203 296.1 
z
" clip-path="url(#pfe33cfc83b)" style="fill: #808080; fill-opacity: 0.75; stroke: #ffffff; stroke-width: 0.298396; stroke-linejoin: miter"/>
   </g>
   <g id="patch_45">
    <path d="M 179.386764 296.1 
L 181.295326 296.1 
L 181.295326 291.780562 
L 179.386764 291.780562 
z
" clip-path="url(#pfe33cfc83b)" style="fill: #808080; fill-opacity: 0.75; stroke: #ffffff; stroke-width: 0.298396; stroke-linejoin: miter"/>
   </g>
   <g id="patch_46">
    <path d="M 181.295326 296.1 
L 183.203887 296.1 
L 183.203887 287.461124 
L 181.295326 287.461124 
z
" clip-path="url(#pfe33cfc83b)" style="fill: #808080; fill-opacity: 0.75; stroke: #ffffff; stroke-width: 0.298396; stroke-linejoin: miter"/>
   </g>
   <g id="patch_47">
    <path d="M 183.203887 296.1 
L 185.112449 296.1 
L 185.112449 289.620843 
L 183.203887 289.620843 
z
" clip-path="url(#pfe33cfc83b)" style="fill: #808080; fill-opacity: 0.75; stroke: #ffffff; stroke-width: 0.298396; stroke-linejoin: miter"/>
   </g>
   <g id="patch_48">
    <path d="M 185.112449 296.1 
L 187.021011 296.1 
L 187.021011 291.780562 
L 185.112449 291.780562 
z
" clip-path="url(#pfe33cfc83b)" style="fill: #808080; fill-opacity: 0.75; stroke: #ffffff; stroke-width: 0.298396; stroke-linejoin: miter"/>
   </g>
   <g id="patch_49">
    <path d="M 187.021011 296.1 
L 188.929572 296.1 
L 188.929572 293.940281 
L 187.021011 293.940281 
z
" clip-path="url(#pfe33cfc83b)" style="fill: #808080; fill-opacity: 0.75; stroke: #ffffff; stroke-width: 0.298396; stroke-linejoin: miter"/>
   </g>
   <g id="patch_50">
    <path d="M 188.929572 296.1 
L 190.838134 296.1 
L 190.838134 291.780562 
L 188.929572 291.780562 
z
" clip-path="url(#pfe33cfc83b)" style="fill: #808080; fill-opacity: 0.75; stroke: #ffffff; stroke-width: 0.298396; stroke-linejoin: miter"/>
   </g>
   <g id="patch_51">
    <path d="M 190.838134 296.1 
L 192.746695 296.1 
L 192.746695 296.1 
L 190.838134 296.1 
z
" clip-path="url(#pfe33cfc83b)" style="fill: #808080; fill-opacity: 0.75; stroke: #ffffff; stroke-width: 0.298396; stroke-linejoin: miter"/>
   </g>
   <g id="patch_52">
    <path d="M 192.746695 296.1 
L 194.655257 296.1 
L 194.655257 293.940281 
L 192.746695 293.940281 
z
" clip-path="url(#pfe33cfc83b)" style="fill: #808080; fill-opacity: 0.75; stroke: #ffffff; stroke-width: 0.298396; stroke-linejoin: miter"/>
   </g>
   <g id="patch_53">
    <path d="M 194.655257 296.1 
L 196.563819 296.1 
L 196.563819 291.780562 
L 194.655257 291.780562 
z
" clip-path="url(#pfe33cfc83b)" style="fill: #808080; fill-opacity: 0.75; stroke: #ffffff; stroke-width: 0.298396; stroke-linejoin: miter"/>
   </g>
   <g id="patch_54">
    <path d="M 196.563819 296.1 
L 198.47238 296.1 
L 198.47238 291.780562 
L 196.563819 291.780562 
z
" clip-path="url(#pfe33cfc83b)" style="fill: #808080; fill-opacity: 0.75; stroke: #ffffff; stroke-width: 0.298396; stroke-linejoin: miter"/>
   </g>
   <g id="patch_55">
    <path d="M 198.47238 296.1 
L 200.380942 296.1 
L 200.380942 293.940281 
L 198.47238 293.940281 
z
" clip-path="url(#pfe33cfc83b)" style="fill: #808080; fill-opacity: 0.75; stroke: #ffffff; stroke-width: 0.298396; stroke-linejoin: miter"/>
   </g>
   <g id="patch_56">
    <path d="M 200.380942 296.1 
L 202.289503 296.1 
L 202.289503 285.301405 
L 200.380942 285.301405 
z
" clip-path="url(#pfe33cfc83b)" style="fill: #808080; fill-opacity: 0.75; stroke: #ffffff; stroke-width: 0.298396; stroke-linejoin: miter"/>
   </g>
   <g id="patch_57">
    <path d="M 202.289503 296.1 
L 204.198065 296.1 
L 204.198065 289.620843 
L 202.289503 289.620843 
z
" clip-path="url(#pfe33cfc83b)" style="fill: #808080; fill-opacity: 0.75; stroke: #ffffff; stroke-width: 0.298396; stroke-linejoin: miter"/>
   </g>
   <g id="patch_58">
    <path d="M 204.198065 296.1 
L 206.106627 296.1 
L 206.106627 283.141686 
L 204.198065 283.141686 
z
" clip-path="url(#pfe33cfc83b)" style="fill: #808080; fill-opacity: 0.75; stroke: #ffffff; stroke-width: 0.298396; stroke-linejoin: miter"/>
   </g>
   <g id="patch_59">
    <path d="M 206.106627 296.1 
L 208.015188 296.1 
L 208.015188 285.301405 
L 206.106627 285.301405 
z
" clip-path="url(#pfe33cfc83b)" style="fill: #808080; fill-opacity: 0.75; stroke: #ffffff; stroke-width: 0.298396; stroke-linejoin: miter"/>
   </g>
   <g id="patch_60">
    <path d="M 208.015188 296.1 
L 209.92375 296.1 
L 209.92375 289.620843 
L 208.015188 289.620843 
z
" clip-path="url(#pfe33cfc83b)" style="fill: #808080; fill-opacity: 0.75; stroke: #ffffff; stroke-width: 0.298396; stroke-linejoin: miter"/>
   </g>
   <g id="patch_61">
    <path d="M 209.92375 296.1 
L 211.832312 296.1 
L 211.832312 287.461124 
L 209.92375 287.461124 
z
" clip-path="url(#pfe33cfc83b)" style="fill: #808080; fill-opacity: 0.75; stroke: #ffffff; stroke-width: 0.298396; stroke-linejoin: miter"/>
   </g>
   <g id="patch_62">
    <path d="M 211.832312 296.1 
L 213.740873 296.1 
L 213.740873 287.461124 
L 211.832312 287.461124 
z
" clip-path="url(#pfe33cfc83b)" style="fill: #808080; fill-opacity: 0.75; stroke: #ffffff; stroke-width: 0.298396; stroke-linejoin: miter"/>
   </g>
   <g id="patch_63">
    <path d="M 213.740873 296.1 
L 215.649435 296.1 
L 215.649435 287.461124 
L 213.740873 287.461124 
z
" clip-path="url(#pfe33cfc83b)" style="fill: #808080; fill-opacity: 0.75; stroke: #ffffff; stroke-width: 0.298396; stroke-linejoin: miter"/>
   </g>
   <g id="patch_64">
    <path d="M 215.649435 296.1 
L 217.557996 296.1 
L 217.557996 289.620843 
L 215.649435 289.620843 
z
" clip-path="url(#pfe33cfc83b)" style="fill: #808080; fill-opacity: 0.75; stroke: #ffffff; stroke-width: 0.298396; stroke-linejoin: miter"/>
   </g>
   <g id="patch_65">
    <path d="M 217.557996 296.1 
L 219.466558 296.1 
L 219.466558 285.301405 
L 217.557996 285.301405 
z
" clip-path="url(#pfe33cfc83b)" style="fill: #808080; fill-opacity: 0.75; stroke: #ffffff; stroke-width: 0.298396; stroke-linejoin: miter"/>
   </g>
   <g id="patch_66">
    <path d="M 219.466558 296.1 
L 221.37512 296.1 
L 221.37512 289.620843 
L 219.466558 289.620843 
z
" clip-path="url(#pfe33cfc83b)" style="fill: #808080; fill-opacity: 0.75; stroke: #ffffff; stroke-width: 0.298396; stroke-linejoin: miter"/>
   </g>
   <g id="patch_67">
    <path d="M 221.37512 296.1 
L 223.283681 296.1 
L 223.283681 283.141686 
L 221.37512 283.141686 
z
" clip-path="url(#pfe33cfc83b)" style="fill: #808080; fill-opacity: 0.75; stroke: #ffffff; stroke-width: 0.298396; stroke-linejoin: miter"/>
   </g>
   <g id="patch_68">
    <path d="M 223.283681 296.1 
L 225.192243 296.1 
L 225.192243 287.461124 
L 223.283681 287.461124 
z
" clip-path="url(#pfe33cfc83b)" style="fill: #808080; fill-opacity: 0.75; stroke: #ffffff; stroke-width: 0.298396; stroke-linejoin: miter"/>
   </g>
   <g id="patch_69">
    <path d="M 225.192243 296.1 
L 227.100804 296.1 
L 227.100804 283.141686 
L 225.192243 283.141686 
z
" clip-path="url(#pfe33cfc83b)" style="fill: #808080; fill-opacity: 0.75; stroke: #ffffff; stroke-width: 0.298396; stroke-linejoin: miter"/>
   </g>
   <g id="patch_70">
    <path d="M 227.100804 296.1 
L 229.009366 296.1 
L 229.009366 287.461124 
L 227.100804 287.461124 
z
" clip-path="url(#pfe33cfc83b)" style="fill: #808080; fill-opacity: 0.75; stroke: #ffffff; stroke-width: 0.298396; stroke-linejoin: miter"/>
   </g>
   <g id="patch_71">
    <path d="M 229.009366 296.1 
L 230.917928 296.1 
L 230.917928 293.940281 
L 229.009366 293.940281 
z
" clip-path="url(#pfe33cfc83b)" style="fill: #808080; fill-opacity: 0.75; stroke: #ffffff; stroke-width: 0.298396; stroke-linejoin: miter"/>
   </g>
   <g id="patch_72">
    <path d="M 230.917928 296.1 
L 232.826489 296.1 
L 232.826489 276.662529 
L 230.917928 276.662529 
z
" clip-path="url(#pfe33cfc83b)" style="fill: #808080; fill-opacity: 0.75; stroke: #ffffff; stroke-width: 0.298396; stroke-linejoin: miter"/>
   </g>
   <g id="patch_73">
    <path d="M 232.826489 296.1 
L 234.735051 296.1 
L 234.735051 280.981967 
L 232.826489 280.981967 
z
" clip-path="url(#pfe33cfc83b)" style="fill: #808080; fill-opacity: 0.75; stroke: #ffffff; stroke-width: 0.298396; stroke-linejoin: miter"/>
   </g>
   <g id="patch_74">
    <path d="M 234.735051 296.1 
L 236.643612 296.1 
L 236.643612 278.822248 
L 234.735051 278.822248 
z
" clip-path="url(#pfe33cfc83b)" style="fill: #808080; fill-opacity: 0.75; stroke: #ffffff; stroke-width: 0.298396; stroke-linejoin: miter"/>
   </g>
   <g id="patch_75">
    <path d="M 236.643612 296.1 
L 238.552174 296.1 
L 238.552174 285.301405 
L 236.643612 285.301405 
z
" clip-path="url(#pfe33cfc83b)" style="fill: #808080; fill-opacity: 0.75; stroke: #ffffff; stroke-width: 0.298396; stroke-linejoin: miter"/>
   </g>
   <g id="patch_76">
    <path d="M 238.552174 296.1 
L 240.460736 296.1 
L 240.460736 276.662529 
L 238.552174 276.662529 
z
" clip-path="url(#pfe33cfc83b)" style="fill: #808080; fill-opacity: 0.75; stroke: #ffffff; stroke-width: 0.298396; stroke-linejoin: miter"/>
   </g>
   <g id="patch_77">
    <path d="M 240.460736 296.1 
L 242.369297 296.1 
L 242.369297 280.981967 
L 240.460736 280.981967 
z
" clip-path="url(#pfe33cfc83b)" style="fill: #808080; fill-opacity: 0.75; stroke: #ffffff; stroke-width: 0.298396; stroke-linejoin: miter"/>
   </g>
   <g id="patch_78">
    <path d="M 242.369297 296.1 
L 244.277859 296.1 
L 244.277859 291.780562 
L 242.369297 291.780562 
z
" clip-path="url(#pfe33cfc83b)" style="fill: #808080; fill-opacity: 0.75; stroke: #ffffff; stroke-width: 0.298396; stroke-linejoin: miter"/>
   </g>
   <g id="patch_79">
    <path d="M 244.277859 296.1 
L 246.186421 296.1 
L 246.186421 278.822248 
L 244.277859 278.822248 
z
" clip-path="url(#pfe33cfc83b)" style="fill: #808080; fill-opacity: 0.75; stroke: #ffffff; stroke-width: 0.298396; stroke-linejoin: miter"/>
   </g>
   <g id="patch_80">
    <path d="M 246.186421 296.1 
L 248.094982 296.1 
L 248.094982 283.141686 
L 246.186421 283.141686 
z
" clip-path="url(#pfe33cfc83b)" style="fill: #808080; fill-opacity: 0.75; stroke: #ffffff; stroke-width: 0.298396; stroke-linejoin: miter"/>
   </g>
   <g id="patch_81">
    <path d="M 248.094982 296.1 
L 250.003544 296.1 
L 250.003544 280.981967 
L 248.094982 280.981967 
z
" clip-path="url(#pfe33cfc83b)" style="fill: #808080; fill-opacity: 0.75; stroke: #ffffff; stroke-width: 0.298396; stroke-linejoin: miter"/>
   </g>
   <g id="patch_82">
    <path d="M 250.003544 296.1 
L 251.912105 296.1 
L 251.912105 285.301405 
L 250.003544 285.301405 
z
" clip-path="url(#pfe33cfc83b)" style="fill: #808080; fill-opacity: 0.75; stroke: #ffffff; stroke-width: 0.298396; stroke-linejoin: miter"/>
   </g>
   <g id="patch_83">
    <path d="M 251.912105 296.1 
L 253.820667 296.1 
L 253.820667 287.461124 
L 251.912105 287.461124 
z
" clip-path="url(#pfe33cfc83b)" style="fill: #808080; fill-opacity: 0.75; stroke: #ffffff; stroke-width: 0.298396; stroke-linejoin: miter"/>
   </g>
   <g id="patch_84">
    <path d="M 253.820667 296.1 
L 255.729229 296.1 
L 255.729229 291.780562 
L 253.820667 291.780562 
z
" clip-path="url(#pfe33cfc83b)" style="fill: #808080; fill-opacity: 0.75; stroke: #ffffff; stroke-width: 0.298396; stroke-linejoin: miter"/>
   </g>
   <g id="patch_85">
    <path d="M 255.729229 296.1 
L 257.63779 296.1 
L 257.63779 289.620843 
L 255.729229 289.620843 
z
" clip-path="url(#pfe33cfc83b)" style="fill: #808080; fill-opacity: 0.75; stroke: #ffffff; stroke-width: 0.298396; stroke-linejoin: miter"/>
   </g>
   <g id="patch_86">
    <path d="M 257.63779 296.1 
L 259.546352 296.1 
L 259.546352 287.461124 
L 257.63779 287.461124 
z
" clip-path="url(#pfe33cfc83b)" style="fill: #808080; fill-opacity: 0.75; stroke: #ffffff; stroke-width: 0.298396; stroke-linejoin: miter"/>
   </g>
   <g id="patch_87">
    <path d="M 259.546352 296.1 
L 261.454913 296.1 
L 261.454913 289.620843 
L 259.546352 289.620843 
z
" clip-path="url(#pfe33cfc83b)" style="fill: #808080; fill-opacity: 0.75; stroke: #ffffff; stroke-width: 0.298396; stroke-linejoin: miter"/>
   </g>
   <g id="PolyCollection_1">
    <defs>
     <path id="m96cf97ab6c" d="M 52.351131 -63.90316 
L 52.351131 -63.9 
L 53.657239 -63.9 
L 54.963347 -63.9 
L 56.269456 -63.9 
L 57.575564 -63.9 
L 58.881672 -63.9 
L 60.187781 -63.9 
L 61.493889 -63.9 
L 62.799997 -63.9 
L 64.106106 -63.9 
L 65.412214 -63.9 
L 66.718322 -63.9 
L 68.024431 -63.9 
L 69.330539 -63.9 
L 70.636647 -63.9 
L 71.942756 -63.9 
L 73.248864 -63.9 
L 74.554972 -63.9 
L 75.861081 -63.9 
L 77.167189 -63.9 
L 78.473297 -63.9 
L 79.779406 -63.9 
L 81.085514 -63.9 
L 82.391622 -63.9 
L 83.697731 -63.9 
L 85.003839 -63.9 
L 86.309948 -63.9 
L 87.616056 -63.9 
L 88.922164 -63.9 
L 90.228273 -63.9 
L 91.534381 -63.9 
L 92.840489 -63.9 
L 94.146598 -63.9 
L 95.452706 -63.9 
L 96.758814 -63.9 
L 98.064923 -63.9 
L 99.371031 -63.9 
L 100.677139 -63.9 
L 101.983248 -63.9 
L 103.289356 -63.9 
L 104.595464 -63.9 
L 105.901573 -63.9 
L 107.207681 -63.9 
L 108.513789 -63.9 
L 109.819898 -63.9 
L 111.126006 -63.9 
L 112.432114 -63.9 
L 113.738223 -63.9 
L 115.044331 -63.9 
L 116.350439 -63.9 
L 117.656548 -63.9 
L 118.962656 -63.9 
L 120.268764 -63.9 
L 121.574873 -63.9 
L 122.880981 -63.9 
L 124.187089 -63.9 
L 125.493198 -63.9 
L 126.799306 -63.9 
L 128.105414 -63.9 
L 129.411523 -63.9 
L 130.717631 -63.9 
L 132.023739 -63.9 
L 133.329848 -63.9 
L 134.635956 -63.9 
L 135.942064 -63.9 
L 137.248173 -63.9 
L 138.554281 -63.9 
L 139.860389 -63.9 
L 141.166498 -63.9 
L 142.472606 -63.9 
L 143.778715 -63.9 
L 145.084823 -63.9 
L 146.390931 -63.9 
L 147.69704 -63.9 
L 149.003148 -63.9 
L 150.309256 -63.9 
L 151.615365 -63.9 
L 152.921473 -63.9 
L 154.227581 -63.9 
L 155.53369 -63.9 
L 156.839798 -63.9 
L 158.145906 -63.9 
L 159.452015 -63.9 
L 160.758123 -63.9 
L 162.064231 -63.9 
L 163.37034 -63.9 
L 164.676448 -63.9 
L 165.982556 -63.9 
L 167.288665 -63.9 
L 168.594773 -63.9 
L 169.900881 -63.9 
L 171.20699 -63.9 
L 172.513098 -63.9 
L 173.819206 -63.9 
L 175.125315 -63.9 
L 176.431423 -63.9 
L 177.737531 -63.9 
L 179.04364 -63.9 
L 180.349748 -63.9 
L 181.655856 -63.9 
L 182.961965 -63.9 
L 184.268073 -63.9 
L 185.574181 -63.9 
L 186.88029 -63.9 
L 188.186398 -63.9 
L 189.492506 -63.9 
L 190.798615 -63.9 
L 192.104723 -63.9 
L 193.410831 -63.9 
L 194.71694 -63.9 
L 196.023048 -63.9 
L 197.329156 -63.9 
L 198.635265 -63.9 
L 199.941373 -63.9 
L 201.247481 -63.9 
L 202.55359 -63.9 
L 203.859698 -63.9 
L 205.165807 -63.9 
L 206.471915 -63.9 
L 207.778023 -63.9 
L 209.084132 -63.9 
L 210.39024 -63.9 
L 211.696348 -63.9 
L 213.002457 -63.9 
L 214.308565 -63.9 
L 215.614673 -63.9 
L 216.920782 -63.9 
L 218.22689 -63.9 
L 219.532998 -63.9 
L 220.839107 -63.9 
L 222.145215 -63.9 
L 223.451323 -63.9 
L 224.757432 -63.9 
L 226.06354 -63.9 
L 227.369648 -63.9 
L 228.675757 -63.9 
L 229.981865 -63.9 
L 231.287973 -63.9 
L 232.594082 -63.9 
L 233.90019 -63.9 
L 235.206298 -63.9 
L 236.512407 -63.9 
L 237.818515 -63.9 
L 239.124623 -63.9 
L 240.430732 -63.9 
L 241.73684 -63.9 
L 243.042948 -63.9 
L 244.349057 -63.9 
L 245.655165 -63.9 
L 246.961273 -63.9 
L 248.267382 -63.9 
L 249.57349 -63.9 
L 250.879598 -63.9 
L 252.185707 -63.9 
L 253.491815 -63.9 
L 254.797923 -63.9 
L 256.104032 -63.9 
L 257.41014 -63.9 
L 258.716248 -63.9 
L 260.022357 -63.9 
L 261.328465 -63.9 
L 262.634574 -63.9 
L 263.940682 -63.9 
L 265.24679 -63.9 
L 266.552899 -63.9 
L 267.859007 -63.9 
L 269.165115 -63.9 
L 270.471224 -63.9 
L 271.777332 -63.9 
L 273.08344 -63.9 
L 274.389549 -63.9 
L 275.695657 -63.9 
L 277.001765 -63.9 
L 278.307874 -63.9 
L 279.613982 -63.9 
L 280.92009 -63.9 
L 282.226199 -63.9 
L 283.532307 -63.9 
L 284.838415 -63.9 
L 286.144524 -63.9 
L 287.450632 -63.9 
L 288.75674 -63.9 
L 290.062849 -63.9 
L 291.368957 -63.9 
L 292.675065 -63.9 
L 293.981174 -63.9 
L 295.287282 -63.9 
L 296.59339 -63.9 
L 297.899499 -63.9 
L 299.205607 -63.9 
L 300.511715 -63.9 
L 301.817824 -63.9 
L 303.123932 -63.9 
L 304.43004 -63.9 
L 305.736149 -63.9 
L 307.042257 -63.9 
L 308.348365 -63.9 
L 309.654474 -63.9 
L 310.960582 -63.9 
L 312.26669 -63.9 
L 312.26669 -63.90252 
L 312.26669 -63.90252 
L 310.960582 -63.903534 
L 309.654474 -63.904907 
L 308.348365 -63.906748 
L 307.042257 -63.909191 
L 305.736149 -63.912399 
L 304.43004 -63.916571 
L 303.123932 -63.921945 
L 301.817824 -63.928798 
L 300.511715 -63.937458 
L 299.205607 -63.9483 
L 297.899499 -63.961752 
L 296.59339 -63.978298 
L 295.287282 -63.998481 
L 293.981174 -64.022901 
L 292.675065 -64.052218 
L 291.368957 -64.087153 
L 290.062849 -64.128486 
L 288.75674 -64.177057 
L 287.450632 -64.233763 
L 286.144524 -64.299554 
L 284.838415 -64.375426 
L 283.532307 -64.462418 
L 282.226199 -64.561589 
L 280.92009 -64.674008 
L 279.613982 -64.800727 
L 278.307874 -64.942747 
L 277.001765 -65.100983 
L 275.695657 -65.276218 
L 274.389549 -65.469051 
L 273.08344 -65.67985 
L 271.777332 -65.908691 
L 270.471224 -66.155319 
L 269.165115 -66.4191 
L 267.859007 -66.699001 
L 266.552899 -66.993581 
L 265.24679 -67.301003 
L 263.940682 -67.619071 
L 262.634574 -67.945296 
L 261.328465 -68.276977 
L 260.022357 -68.611307 
L 258.716248 -68.945487 
L 257.41014 -69.276853 
L 256.104032 -69.602992 
L 254.797923 -69.921849 
L 253.491815 -70.231816 
L 252.185707 -70.531784 
L 250.879598 -70.821167 
L 249.57349 -71.099891 
L 248.267382 -71.368338 
L 246.961273 -71.62726 
L 245.655165 -71.877672 
L 244.349057 -72.120715 
L 243.042948 -72.35752 
L 241.73684 -72.589068 
L 240.430732 -72.816064 
L 239.124623 -73.038841 
L 237.818515 -73.257282 
L 236.512407 -73.470787 
L 235.206298 -73.678279 
L 233.90019 -73.878238 
L 232.594082 -74.068778 
L 231.287973 -74.247752 
L 229.981865 -74.412866 
L 228.675757 -74.561815 
L 227.369648 -74.692413 
L 226.06354 -74.802718 
L 224.757432 -74.89113 
L 223.451323 -74.956473 
L 222.145215 -74.998041 
L 220.839107 -75.015616 
L 219.532998 -75.009447 
L 218.22689 -74.980207 
L 216.920782 -74.928919 
L 215.614673 -74.856865 
L 214.308565 -74.765493 
L 213.002457 -74.656309 
L 211.696348 -74.530792 
L 210.39024 -74.39031 
L 209.084132 -74.236066 
L 207.778023 -74.069064 
L 206.471915 -73.890106 
L 205.165807 -73.69981 
L 203.859698 -73.498651 
L 202.55359 -73.287027 
L 201.247481 -73.065326 
L 199.941373 -72.834 
L 198.635265 -72.593636 
L 197.329156 -72.345012 
L 196.023048 -72.089136 
L 194.71694 -71.827262 
L 193.410831 -71.560882 
L 192.104723 -71.291692 
L 190.798615 -71.021534 
L 189.492506 -70.752329 
L 188.186398 -70.485987 
L 186.88029 -70.224326 
L 185.574181 -69.968983 
L 184.268073 -69.721346 
L 182.961965 -69.482497 
L 181.655856 -69.253179 
L 180.349748 -69.033788 
L 179.04364 -68.824386 
L 177.737531 -68.624736 
L 176.431423 -68.43436 
L 175.125315 -68.252606 
L 173.819206 -68.078722 
L 172.513098 -67.911933 
L 171.20699 -67.751511 
L 169.900881 -67.596833 
L 168.594773 -67.447431 
L 167.288665 -67.303015 
L 165.982556 -67.163485 
L 164.676448 -67.028922 
L 163.37034 -66.899563 
L 162.064231 -66.775767 
L 160.758123 -66.657967 
L 159.452015 -66.54662 
L 158.145906 -66.442155 
L 156.839798 -66.344928 
L 155.53369 -66.255178 
L 154.227581 -66.172998 
L 152.921473 -66.098315 
L 151.615365 -66.030879 
L 150.309256 -65.970268 
L 149.003148 -65.915902 
L 147.69704 -65.867064 
L 146.390931 -65.822932 
L 145.084823 -65.782609 
L 143.778715 -65.745166 
L 142.472606 -65.709672 
L 141.166498 -65.675236 
L 139.860389 -65.641031 
L 138.554281 -65.606326 
L 137.248173 -65.570507 
L 135.942064 -65.533091 
L 134.635956 -65.493735 
L 133.329848 -65.452238 
L 132.023739 -65.408544 
L 130.717631 -65.362728 
L 129.411523 -65.314992 
L 128.105414 -65.265641 
L 126.799306 -65.215075 
L 125.493198 -65.163762 
L 124.187089 -65.112223 
L 122.880981 -65.061004 
L 121.574873 -65.010661 
L 120.268764 -64.961736 
L 118.962656 -64.91474 
L 117.656548 -64.87013 
L 116.350439 -64.828298 
L 115.044331 -64.789557 
L 113.738223 -64.754124 
L 112.432114 -64.722121 
L 111.126006 -64.693561 
L 109.819898 -64.668354 
L 108.513789 -64.646305 
L 107.207681 -64.627121 
L 105.901573 -64.610421 
L 104.595464 -64.595752 
L 103.289356 -64.582601 
L 101.983248 -64.570419 
L 100.677139 -64.558638 
L 99.371031 -64.546699 
L 98.064923 -64.534072 
L 96.758814 -64.520278 
L 95.452706 -64.504907 
L 94.146598 -64.487639 
L 92.840489 -64.468254 
L 91.534381 -64.446638 
L 90.228273 -64.422789 
L 88.922164 -64.396813 
L 87.616056 -64.368915 
L 86.309948 -64.339387 
L 85.003839 -64.308593 
L 83.697731 -64.276949 
L 82.391622 -64.2449 
L 81.085514 -64.212904 
L 79.779406 -64.181407 
L 78.473297 -64.150828 
L 77.167189 -64.121539 
L 75.861081 -64.09386 
L 74.554972 -64.068043 
L 73.248864 -64.044275 
L 71.942756 -64.022671 
L 70.636647 -64.003282 
L 69.330539 -63.986098 
L 68.024431 -63.971057 
L 66.718322 -63.958053 
L 65.412214 -63.946948 
L 64.106106 -63.937579 
L 62.799997 -63.92977 
L 61.493889 -63.92334 
L 60.187781 -63.918108 
L 58.881672 -63.913901 
L 57.575564 -63.91056 
L 56.269456 -63.907937 
L 54.963347 -63.905902 
L 53.657239 -63.904342 
L 52.351131 -63.90316 
z
" style="stroke: #0000ff"/>
    </defs>
    <g clip-path="url(#pfe33cfc83b)">
     <use xlink:href="#m96cf97ab6c" x="0" y="360" style="fill: #0000ff; fill-opacity: 0.25; stroke: #0000ff"/>
    </g>
   </g>
   <g id="PolyCollection_2">
    <defs>
     <path id="m9718b05c5f" d="M 63.677653 -63.931255 
L 63.677653 -63.9 
L 64.223609 -63.9 
L 64.769565 -63.9 
L 65.315521 -63.9 
L 65.861478 -63.9 
L 66.407434 -63.9 
L 66.95339 -63.9 
L 67.499346 -63.9 
L 68.045303 -63.9 
L 68.591259 -63.9 
L 69.137215 -63.9 
L 69.683171 -63.9 
L 70.229128 -63.9 
L 70.775084 -63.9 
L 71.32104 -63.9 
L 71.866996 -63.9 
L 72.412953 -63.9 
L 72.958909 -63.9 
L 73.504865 -63.9 
L 74.050821 -63.9 
L 74.596778 -63.9 
L 75.142734 -63.9 
L 75.68869 -63.9 
L 76.234646 -63.9 
L 76.780603 -63.9 
L 77.326559 -63.9 
L 77.872515 -63.9 
L 78.418472 -63.9 
L 78.964428 -63.9 
L 79.510384 -63.9 
L 80.05634 -63.9 
L 80.602297 -63.9 
L 81.148253 -63.9 
L 81.694209 -63.9 
L 82.240165 -63.9 
L 82.786122 -63.9 
L 83.332078 -63.9 
L 83.878034 -63.9 
L 84.42399 -63.9 
L 84.969947 -63.9 
L 85.515903 -63.9 
L 86.061859 -63.9 
L 86.607815 -63.9 
L 87.153772 -63.9 
L 87.699728 -63.9 
L 88.245684 -63.9 
L 88.79164 -63.9 
L 89.337597 -63.9 
L 89.883553 -63.9 
L 90.429509 -63.9 
L 90.975465 -63.9 
L 91.521422 -63.9 
L 92.067378 -63.9 
L 92.613334 -63.9 
L 93.15929 -63.9 
L 93.705247 -63.9 
L 94.251203 -63.9 
L 94.797159 -63.9 
L 95.343115 -63.9 
L 95.889072 -63.9 
L 96.435028 -63.9 
L 96.980984 -63.9 
L 97.52694 -63.9 
L 98.072897 -63.9 
L 98.618853 -63.9 
L 99.164809 -63.9 
L 99.710765 -63.9 
L 100.256722 -63.9 
L 100.802678 -63.9 
L 101.348634 -63.9 
L 101.894591 -63.9 
L 102.440547 -63.9 
L 102.986503 -63.9 
L 103.532459 -63.9 
L 104.078416 -63.9 
L 104.624372 -63.9 
L 105.170328 -63.9 
L 105.716284 -63.9 
L 106.262241 -63.9 
L 106.808197 -63.9 
L 107.354153 -63.9 
L 107.900109 -63.9 
L 108.446066 -63.9 
L 108.992022 -63.9 
L 109.537978 -63.9 
L 110.083934 -63.9 
L 110.629891 -63.9 
L 111.175847 -63.9 
L 111.721803 -63.9 
L 112.267759 -63.9 
L 112.813716 -63.9 
L 113.359672 -63.9 
L 113.905628 -63.9 
L 114.451584 -63.9 
L 114.997541 -63.9 
L 115.543497 -63.9 
L 116.089453 -63.9 
L 116.635409 -63.9 
L 117.181366 -63.9 
L 117.727322 -63.9 
L 118.273278 -63.9 
L 118.819234 -63.9 
L 119.365191 -63.9 
L 119.911147 -63.9 
L 120.457103 -63.9 
L 121.003059 -63.9 
L 121.549016 -63.9 
L 122.094972 -63.9 
L 122.640928 -63.9 
L 123.186884 -63.9 
L 123.732841 -63.9 
L 124.278797 -63.9 
L 124.824753 -63.9 
L 125.37071 -63.9 
L 125.916666 -63.9 
L 126.462622 -63.9 
L 127.008578 -63.9 
L 127.554535 -63.9 
L 128.100491 -63.9 
L 128.646447 -63.9 
L 129.192403 -63.9 
L 129.73836 -63.9 
L 130.284316 -63.9 
L 130.830272 -63.9 
L 131.376228 -63.9 
L 131.922185 -63.9 
L 132.468141 -63.9 
L 133.014097 -63.9 
L 133.560053 -63.9 
L 134.10601 -63.9 
L 134.651966 -63.9 
L 135.197922 -63.9 
L 135.743878 -63.9 
L 136.289835 -63.9 
L 136.835791 -63.9 
L 137.381747 -63.9 
L 137.927703 -63.9 
L 138.47366 -63.9 
L 139.019616 -63.9 
L 139.565572 -63.9 
L 140.111528 -63.9 
L 140.657485 -63.9 
L 141.203441 -63.9 
L 141.749397 -63.9 
L 142.295353 -63.9 
L 142.84131 -63.9 
L 143.387266 -63.9 
L 143.933222 -63.9 
L 144.479178 -63.9 
L 145.025135 -63.9 
L 145.571091 -63.9 
L 146.117047 -63.9 
L 146.663003 -63.9 
L 147.20896 -63.9 
L 147.754916 -63.9 
L 148.300872 -63.9 
L 148.846829 -63.9 
L 149.392785 -63.9 
L 149.938741 -63.9 
L 150.484697 -63.9 
L 151.030654 -63.9 
L 151.57661 -63.9 
L 152.122566 -63.9 
L 152.668522 -63.9 
L 153.214479 -63.9 
L 153.760435 -63.9 
L 154.306391 -63.9 
L 154.852347 -63.9 
L 155.398304 -63.9 
L 155.94426 -63.9 
L 156.490216 -63.9 
L 157.036172 -63.9 
L 157.582129 -63.9 
L 158.128085 -63.9 
L 158.674041 -63.9 
L 159.219997 -63.9 
L 159.765954 -63.9 
L 160.31191 -63.9 
L 160.857866 -63.9 
L 161.403822 -63.9 
L 161.949779 -63.9 
L 162.495735 -63.9 
L 163.041691 -63.9 
L 163.587647 -63.9 
L 164.133604 -63.9 
L 164.67956 -63.9 
L 165.225516 -63.9 
L 165.771472 -63.9 
L 166.317429 -63.9 
L 166.863385 -63.9 
L 167.409341 -63.9 
L 167.955297 -63.9 
L 168.501254 -63.9 
L 169.04721 -63.9 
L 169.593166 -63.9 
L 170.139123 -63.9 
L 170.685079 -63.9 
L 171.231035 -63.9 
L 171.776991 -63.9 
L 172.322948 -63.9 
L 172.322948 -63.908332 
L 172.322948 -63.908332 
L 171.776991 -63.914893 
L 171.231035 -63.925843 
L 170.685079 -63.943564 
L 170.139123 -63.971402 
L 169.593166 -64.013884 
L 169.04721 -64.076927 
L 168.501254 -64.168014 
L 167.955297 -64.296289 
L 167.409341 -64.472584 
L 166.863385 -64.709318 
L 166.317429 -65.020262 
L 165.771472 -65.42014 
L 165.225516 -65.924037 
L 164.67956 -66.546605 
L 164.133604 -67.301082 
L 163.587647 -68.198211 
L 163.041691 -69.24519 
L 162.495735 -70.444892 
L 161.949779 -71.795594 
L 161.403822 -73.291451 
L 160.857866 -74.923799 
L 160.31191 -76.683226 
L 159.765954 -78.562066 
L 159.219997 -80.55685 
L 158.674041 -82.670146 
L 158.128085 -84.911369 
L 157.582129 -87.29642 
L 157.036172 -89.846354 
L 156.490216 -92.585605 
L 155.94426 -95.540393 
L 155.398304 -98.737778 
L 154.852347 -102.205433 
L 154.306391 -105.971718 
L 153.760435 -110.065277 
L 153.214479 -114.513327 
L 152.668522 -119.338136 
L 152.122566 -124.551865 
L 151.57661 -130.150678 
L 151.030654 -136.109578 
L 150.484697 -142.379562 
L 149.938741 -148.888323 
L 149.392785 -155.544897 
L 148.846829 -162.247765 
L 148.300872 -168.895018 
L 147.754916 -175.394771 
L 147.20896 -181.673948 
L 146.663003 -187.683992 
L 146.117047 -193.402711 
L 145.571091 -198.832262 
L 145.025135 -203.993966 
L 144.479178 -208.921188 
L 143.933222 -213.651729 
L 143.387266 -218.22116 
L 142.84131 -222.658173 
L 142.295353 -226.982431 
L 141.749397 -231.20474 
L 141.203441 -235.328696 
L 140.657485 -239.352593 
L 140.111528 -243.270372 
L 139.565572 -247.07082 
L 139.019616 -250.73492 
L 138.47366 -254.2321 
L 137.927703 -257.516666 
L 137.381747 -260.525958 
L 136.835791 -263.181426 
L 136.289835 -265.393119 
L 135.743878 -267.067204 
L 135.197922 -268.115248 
L 134.651966 -268.463529 
L 134.10601 -268.060556 
L 133.560053 -266.88138 
L 133.014097 -264.928153 
L 132.468141 -262.227281 
L 131.922185 -258.824501 
L 131.376228 -254.779662 
L 130.830272 -250.163012 
L 130.284316 -245.054107 
L 129.73836 -239.543363 
L 129.192403 -233.735034 
L 128.646447 -227.749484 
L 128.100491 -221.722399 
L 127.554535 -215.799242 
L 127.008578 -210.124608 
L 126.462622 -204.827818 
L 125.916666 -200.007401 
L 125.37071 -195.717765 
L 124.824753 -191.960939 
L 124.278797 -188.685127 
L 123.732841 -185.790326 
L 123.186884 -183.139884 
L 122.640928 -180.576119 
L 122.094972 -177.937825 
L 121.549016 -175.077656 
L 121.003059 -171.877568 
L 120.457103 -168.260672 
L 119.911147 -164.198061 
L 119.365191 -159.709674 
L 118.819234 -154.859086 
L 118.273278 -149.743298 
L 117.727322 -144.47958 
L 117.181366 -139.191829 
L 116.635409 -133.998526 
L 116.089453 -129.003379 
L 115.543497 -124.288698 
L 114.997541 -119.911054 
L 114.451584 -115.898949 
L 113.905628 -112.25296 
L 113.359672 -108.949231 
L 112.813716 -105.946961 
L 112.267759 -103.199266 
L 111.721803 -100.665162 
L 111.175847 -98.319168 
L 110.629891 -96.155066 
L 110.083934 -94.181939 
L 109.537978 -92.41329 
L 108.992022 -90.852807 
L 108.446066 -89.481941 
L 107.900109 -88.254251 
L 107.354153 -87.099314 
L 106.808197 -85.935756 
L 106.262241 -84.689777 
L 105.716284 -83.313597 
L 105.170328 -81.798201 
L 104.624372 -80.176538 
L 104.078416 -78.516248 
L 103.532459 -76.904028 
L 102.986503 -75.425977 
L 102.440547 -74.149017 
L 101.894591 -73.107838 
L 101.348634 -72.299972 
L 100.802678 -71.689383 
L 100.256722 -71.216871 
L 99.710765 -70.81422 
L 99.164809 -70.418589 
L 98.618853 -69.984077 
L 98.072897 -69.488477 
L 97.52694 -68.9346 
L 96.980984 -68.346774 
L 96.435028 -67.764021 
L 95.889072 -67.231753 
L 95.343115 -66.793656 
L 94.797159 -66.484973 
L 94.251203 -66.327773 
L 93.705247 -66.328321 
L 93.15929 -66.476373 
L 92.613334 -66.746163 
L 92.067378 -67.098926 
L 91.521422 -67.486834 
L 90.975465 -67.858131 
L 90.429509 -68.163069 
L 89.883553 -68.359909 
L 89.337597 -68.420075 
L 88.79164 -68.331521 
L 88.245684 -68.099609 
L 87.699728 -67.745322 
L 87.153772 -67.301166 
L 86.607815 -66.805653 
L 86.061859 -66.297484 
L 85.515903 -65.810547 
L 84.969947 -65.370507 
L 84.42399 -64.993334 
L 83.878034 -64.685649 
L 83.332078 -64.446416 
L 82.786122 -64.26938 
L 82.240165 -64.145635 
L 81.694209 -64.065909 
L 81.148253 -64.022285 
L 80.602297 -64.00931 
L 80.05634 -64.024487 
L 79.510384 -64.068256 
L 78.964428 -64.143495 
L 78.418472 -64.254594 
L 77.872515 -64.406143 
L 77.326559 -64.60131 
L 76.780603 -64.840098 
L 76.234646 -65.117747 
L 75.68869 -65.423669 
L 75.142734 -65.741259 
L 74.596778 -66.048869 
L 74.050821 -66.321971 
L 73.504865 -66.536269 
L 72.958909 -66.671223 
L 72.412953 -66.713285 
L 71.866996 -66.658142 
L 71.32104 -66.51144 
L 70.775084 -66.287834 
L 70.229128 -66.008573 
L 69.683171 -65.698182 
L 69.137215 -65.380946 
L 68.591259 -65.077891 
L 68.045303 -64.804757 
L 67.499346 -64.571149 
L 66.95339 -64.380802 
L 66.407434 -64.23264 
L 65.861478 -64.122251 
L 65.315521 -64.043408 
L 64.769565 -63.989364 
L 64.223609 -63.953779 
L 63.677653 -63.931255 
z
" style="stroke: #ff0000"/>
    </defs>
    <g clip-path="url(#pfe33cfc83b)">
     <use xlink:href="#m9718b05c5f" x="0" y="360" style="fill: #ff0000; fill-opacity: 0.25; stroke: #ff0000"/>
    </g>
   </g>
   <g id="patch_88">
    <path d="M 72.45 296.1 
L 72.45 19.44 
" style="fill: none; stroke: #000000; stroke-linejoin: miter; stroke-linecap: square"/>
   </g>
   <g id="patch_89">
    <path d="M 340.56 296.1 
L 340.56 19.44 
" style="fill: none; stroke: #000000; stroke-linejoin: miter; stroke-linecap: square"/>
   </g>
   <g id="patch_90">
    <path d="M 72.45 296.1 
L 340.56 296.1 
" style="fill: none; stroke: #000000; stroke-linejoin: miter; stroke-linecap: square"/>
   </g>
   <g id="patch_91">
    <path d="M 72.45 19.44 
L 340.56 19.44 
" style="fill: none; stroke: #000000; stroke-linejoin: miter; stroke-linecap: square"/>
   </g>
   <g id="legend_1">
    <g id="patch_92">
     <path d="M 230.345156 79.713984 
L 329.01 79.713984 
Q 332.31 79.713984 332.31 76.413984 
L 332.31 30.99 
Q 332.31 27.69 329.01 27.69 
L 230.345156 27.69 
Q 227.045156 27.69 227.045156 30.99 
L 227.045156 76.413984 
Q 227.045156 79.713984 230.345156 79.713984 
z
" style="fill: #ffffff; opacity: 0.8; stroke: #cccccc; stroke-linejoin: miter"/>
    </g>
    <g id="patch_93">
     <path d="M 233.645156 46.100391 
L 266.645156 46.100391 
L 266.645156 34.550391 
L 233.645156 34.550391 
z
" style="fill: #ff0000; fill-opacity: 0.25; stroke: #ff0000; stroke-linejoin: miter"/>
    </g>
    <g id="text_13">
     <!-- Noise -->
     <g style="fill: #262626" transform="translate(279.845156 46.100391) scale(0.165 -0.165)">
      <defs>
       <path id="ArialMT-4e" d="M 488 0 
L 488 4581 
L 1109 4581 
L 3516 984 
L 3516 4581 
L 4097 4581 
L 4097 0 
L 3475 0 
L 1069 3600 
L 1069 0 
L 488 0 
z
" transform="scale(0.015625)"/>
      </defs>
      <use xlink:href="#ArialMT-4e"/>
      <use xlink:href="#ArialMT-6f" x="72.216797"/>
      <use xlink:href="#ArialMT-69" x="127.832031"/>
      <use xlink:href="#ArialMT-73" x="150.048828"/>
      <use xlink:href="#ArialMT-65" x="200.048828"/>
     </g>
    </g>
    <g id="patch_94">
     <path d="M 233.645156 69.64125 
L 266.645156 69.64125 
L 266.645156 58.09125 
L 233.645156 58.09125 
z
" style="fill: #0000ff; fill-opacity: 0.25; stroke: #0000ff; stroke-linejoin: miter"/>
    </g>
    <g id="text_14">
     <!-- Signal -->
     <g style="fill: #262626" transform="translate(279.845156 69.64125) scale(0.165 -0.165)">
      <defs>
       <path id="ArialMT-61" d="M 2588 409 
Q 2275 144 1986 34 
Q 1697 -75 1366 -75 
Q 819 -75 525 192 
Q 231 459 231 875 
Q 231 1119 342 1320 
Q 453 1522 633 1644 
Q 813 1766 1038 1828 
Q 1203 1872 1538 1913 
Q 2219 1994 2541 2106 
Q 2544 2222 2544 2253 
Q 2544 2597 2384 2738 
Q 2169 2928 1744 2928 
Q 1347 2928 1158 2789 
Q 969 2650 878 2297 
L 328 2372 
Q 403 2725 575 2942 
Q 747 3159 1072 3276 
Q 1397 3394 1825 3394 
Q 2250 3394 2515 3294 
Q 2781 3194 2906 3042 
Q 3031 2891 3081 2659 
Q 3109 2516 3109 2141 
L 3109 1391 
Q 3109 606 3145 398 
Q 3181 191 3288 0 
L 2700 0 
Q 2613 175 2588 409 
z
M 2541 1666 
Q 2234 1541 1622 1453 
Q 1275 1403 1131 1340 
Q 988 1278 909 1158 
Q 831 1038 831 891 
Q 831 666 1001 516 
Q 1172 366 1500 366 
Q 1825 366 2078 508 
Q 2331 650 2450 897 
Q 2541 1088 2541 1459 
L 2541 1666 
z
" transform="scale(0.015625)"/>
      </defs>
      <use xlink:href="#ArialMT-53"/>
      <use xlink:href="#ArialMT-69" x="66.699219"/>
      <use xlink:href="#ArialMT-67" x="88.916016"/>
      <use xlink:href="#ArialMT-6e" x="144.53125"/>
      <use xlink:href="#ArialMT-61" x="200.146484"/>
      <use xlink:href="#ArialMT-6c" x="255.761719"/>
     </g>
    </g>
   </g>
  </g>
 </g>
 <defs>
  <clipPath id="pfe33cfc83b">
   <rect x="72.45" y="19.44" width="268.11" height="276.66"/>
  </clipPath>
 </defs>
</svg>
